<svg width="512" height="512" viewBox="0 0 512 512" fill="none" xmlns="http://www.w3.org/2000/svg">
<mask id="mask0_27_10" style="mask-type:alpha" maskUnits="userSpaceOnUse" x="18" y="18" width="476" height="476">
<rect x="18" y="18" width="476" height="476" fill="#D9D9D9"/>
</mask>
<g mask="url(#mask0_27_10)">
<path d="M207.408 366.571C204.764 366.571 202.285 366.158 199.971 365.331C197.657 364.505 195.508 363.1 193.525 361.117L108.242 275.833C104.606 272.197 102.87 267.487 103.035 261.702C103.201 255.917 105.101 251.207 108.738 247.571C112.374 243.935 117.001 242.117 122.621 242.117C128.24 242.117 132.868 243.935 136.504 247.571L207.408 318.475L375.496 150.388C379.132 146.751 383.842 144.933 389.627 144.933C395.412 144.933 400.122 146.751 403.758 150.388C407.394 154.024 409.213 158.734 409.213 164.519C409.213 170.304 407.394 175.014 403.758 178.65L221.292 361.117C219.308 363.1 217.16 364.505 214.846 365.331C212.532 366.158 210.053 366.571 207.408 366.571Z" fill="#2C8589"/>
</g>
</svg>
